<svg version="1.1" id="Layer_1" xmlns="http://www.w3.org/2000/svg" xmlns:xlink="http://www.w3.org/1999/xlink" x="0px" y="0px"
	 width="100%" viewBox="0 0 225 225" enable-background="new 0 0 225 225" xml:space="preserve">
<path fill="#D2D2D2" opacity="1.000000" stroke="none" 
	d="
M226.000000,23.000000 
	C226.000000,25.041666 226.000000,27.083334 225.639069,29.676956 
	C223.499756,33.006828 222.638199,35.699574 226.000000,38.000000 
	C226.000000,40.041668 226.000000,42.083332 225.627777,44.700493 
	C225.067612,51.630714 224.866928,57.985207 224.747620,64.341225 
	C224.743652,64.552910 225.563919,64.780060 226.000000,65.000000 
	C226.000000,97.020897 226.000000,129.041794 225.626770,161.666824 
	C225.066330,168.626495 224.866272,174.981781 224.747757,181.338593 
	C224.743790,181.551208 225.563980,181.779190 226.000000,182.000000 
	C226.000000,184.041672 226.000000,186.083328 225.643463,188.688751 
	C223.487961,192.022446 222.637375,194.705109 226.000000,197.000000 
	C226.000000,199.041672 226.000000,201.083328 225.632751,203.538147 
	C221.487350,214.339172 215.040558,222.002823 203.916962,224.929184 
	C203.855026,224.945465 203.968460,225.628387 204.000000,226.000000 
	C201.958328,226.000000 199.916672,226.000000 197.323059,225.639069 
	C193.993210,223.499725 191.300446,222.638245 189.000000,226.000000 
	C186.958328,226.000000 184.916672,226.000000 182.299500,225.627731 
	C175.036148,225.067291 168.348480,224.866928 161.659393,224.746719 
	C161.447174,224.742905 161.220139,225.563644 161.000000,226.000000 
	C129.312439,226.000000 97.624878,226.000000 65.333191,225.626770 
	C58.373524,225.066330 52.018230,224.866287 45.661419,224.747772 
	C45.448807,224.743790 45.220821,225.563980 45.000000,226.000000 
	C42.958332,226.000000 40.916668,226.000000 38.311249,225.643463 
	C34.977551,223.487976 32.294884,222.637375 30.000000,226.000000 
	C27.958334,226.000000 25.916666,226.000000 23.462524,225.632721 
	C12.915418,221.455414 5.144531,215.322235 2.316785,204.275330 
	C2.267748,204.083755 1.455903,204.087433 1.000000,204.000000 
	C1.000000,200.969406 1.000000,197.938812 1.377008,194.327332 
	C2.153630,193.072098 2.894919,192.400955 2.901291,191.722900 
	C2.988196,182.475525 3.034059,173.226288 2.896538,163.980392 
	C2.881626,162.977753 1.661229,161.993042 0.999997,161.000000 
	C1.000000,131.979111 1.000000,102.958214 1.373271,73.333130 
	C2.161362,71.725143 2.928922,70.724144 2.936893,69.717125 
	C3.024624,58.634987 3.053276,47.551132 2.908275,36.470230 
	C2.893033,35.305363 1.665234,34.156361 1.000000,33.000000 
	C1.000000,29.969406 1.000000,26.938814 1.301439,23.750141 
	C1.905418,23.220186 2.365723,22.893604 2.487402,22.469801 
	C5.459485,12.118121 12.065493,5.444802 22.459352,2.504051 
	C23.066172,2.332362 23.490660,1.516229 24.000000,1.000000 
	C27.030594,1.000000 30.061188,1.000000 33.673294,1.376665 
	C34.930313,2.153085 35.603302,2.896396 36.281700,2.901367 
	C47.525898,2.983748 58.771343,3.023690 70.014534,2.897532 
	C71.016663,2.886288 72.005165,1.661289 73.000000,0.999999 
	C94.687561,1.000000 116.375122,1.000000 138.667343,1.373075 
	C139.779068,2.119030 140.281403,2.809209 140.793915,2.816854 
	C147.703537,2.919925 154.615738,2.994752 161.523712,2.872663 
	C162.359924,2.857885 163.175079,1.653202 164.000000,1.000001 
	C169.022095,1.000000 174.044189,1.000000 179.669769,1.371066 
	C184.678497,3.884673 191.378952,3.522415 194.000000,1.000000 
	C197.030594,1.000000 200.061188,1.000000 203.258331,1.305205 
	C213.992294,5.362517 221.937149,11.732724 224.928864,23.084908 
	C224.945068,23.146427 225.628281,23.032169 226.000000,23.000000 
M110.787025,93.990120 
	C87.780327,91.159554 68.922401,80.509750 53.095657,62.793438 
	C46.242249,78.469604 49.400726,91.400322 60.826164,103.323090 
	C57.117096,102.383347 53.408028,101.443604 49.153564,100.365685 
	C50.192642,115.538841 58.458225,124.413521 71.617783,130.138077 
	C68.000282,130.480133 64.382782,130.822189 60.717304,131.168777 
	C63.506508,141.392899 70.301987,146.661743 87.481293,151.927856 
	C74.994263,161.400467 61.121326,164.902466 45.159431,164.801987 
	C74.690353,183.549698 123.280251,183.456604 153.067795,150.218018 
	C167.293594,134.344055 175.519592,115.709618 175.970474,94.112335 
	C176.066254,89.524750 177.052811,85.913383 180.964325,82.908150 
	C184.424179,80.249924 187.139069,76.622055 190.182846,73.422279 
	C189.998657,73.152565 189.814468,72.882851 189.630280,72.613144 
	C185.227890,73.671547 180.825500,74.729958 176.033447,75.882050 
	C180.027130,70.686562 183.362625,66.347336 186.698120,62.008114 
	C186.266846,61.608318 185.835571,61.208523 185.404297,60.808727 
	C183.762863,61.496712 182.098709,62.135502 180.483963,62.881260 
	C173.701172,66.013802 167.944504,66.822968 160.877716,61.529728 
	C149.022736,52.649971 130.777786,57.077999 121.775192,69.304939 
	C116.344742,76.680359 114.901817,84.952835 116.079643,94.079308 
	C114.274658,94.079308 112.987984,94.079308 110.787025,93.990120 
z"/>
<path fill="#060606" opacity="1.000000" stroke="none" 
	d="
M23.531263,1.000000 
	C23.490660,1.516229 23.066172,2.332362 22.459352,2.504051 
	C12.065493,5.444802 5.459485,12.118121 2.487402,22.469801 
	C2.365723,22.893604 1.905418,23.220186 1.301439,23.296032 
	C1.000000,15.738759 1.000000,8.477518 1.000000,1.000000 
	C8.352768,1.000000 15.707647,1.000000 23.531263,1.000000 
z"/>
<path fill="#050505" opacity="1.000000" stroke="none" 
	d="
M226.000000,22.531216 
	C225.628281,23.032169 224.945068,23.146427 224.928864,23.084908 
	C221.937149,11.732724 213.992294,5.362517 203.712448,1.305205 
	C211.259567,1.000000 218.519135,1.000000 226.000000,1.000000 
	C226.000000,8.019269 226.000000,15.040852 226.000000,22.531216 
z"/>
<path fill="#050505" opacity="1.000000" stroke="none" 
	d="
M1.000000,204.468781 
	C1.455903,204.087433 2.267748,204.083755 2.316785,204.275330 
	C5.144531,215.322235 12.915418,221.455414 23.025024,225.632721 
	C15.740432,226.000000 8.480864,226.000000 1.000000,226.000000 
	C1.000000,218.980728 1.000000,211.959152 1.000000,204.468781 
z"/>
<path fill="#050505" opacity="1.000000" stroke="none" 
	d="
M204.468781,226.000000 
	C203.968460,225.628387 203.855026,224.945465 203.916962,224.929184 
	C215.040558,222.002823 221.487350,214.339172 225.632751,203.975647 
	C226.000000,211.259567 226.000000,218.519135 226.000000,226.000000 
	C218.980728,226.000000 211.959152,226.000000 204.468781,226.000000 
z"/>
<path fill="#D9D9D9" opacity="1.000000" stroke="none" 
	d="
M1.000000,33.468658 
	C1.665234,34.156361 2.893033,35.305363 2.908275,36.470230 
	C3.053276,47.551132 3.024624,58.634987 2.936893,69.717125 
	C2.928922,70.724144 2.161362,71.725143 1.373271,72.864471 
	C1.000000,59.979107 1.000000,46.958210 1.000000,33.468658 
z"/>
<path fill="#D9D9D9" opacity="1.000000" stroke="none" 
	d="
M72.531342,0.999999 
	C72.005165,1.661289 71.016663,2.886288 70.014534,2.897532 
	C58.771343,3.023690 47.525898,2.983748 36.281700,2.901367 
	C35.603302,2.896396 34.930313,2.153085 34.127403,1.376665 
	C46.687561,1.000000 59.375122,1.000000 72.531342,0.999999 
z"/>
<path fill="#D9D9D9" opacity="1.000000" stroke="none" 
	d="
M0.999997,161.468658 
	C1.661229,161.993042 2.881626,162.977753 2.896538,163.980392 
	C3.034059,173.226288 2.988196,182.475525 2.901291,191.722900 
	C2.894919,192.400955 2.153630,193.072098 1.377008,193.873230 
	C1.000000,183.312439 1.000000,172.624878 0.999997,161.468658 
z"/>
<path fill="#D9D9D9" opacity="1.000000" stroke="none" 
	d="
M163.531357,1.000001 
	C163.175079,1.653202 162.359924,2.857885 161.523712,2.872663 
	C154.615738,2.994752 147.703537,2.919925 140.793915,2.816854 
	C140.281403,2.809209 139.779068,2.119030 139.136002,1.373075 
	C147.020905,1.000000 155.041809,1.000000 163.531357,1.000001 
z"/>
<path fill="#D9D9D9" opacity="1.000000" stroke="none" 
	d="
M161.468536,226.000000 
	C161.220139,225.563644 161.447174,224.742905 161.659393,224.746719 
	C168.348480,224.866928 175.036148,225.067291 181.862000,225.627731 
	C175.312363,226.000000 168.624710,226.000000 161.468536,226.000000 
z"/>
<path fill="#D9D9D9" opacity="1.000000" stroke="none" 
	d="
M226.000000,64.531601 
	C225.563919,64.780060 224.743652,64.552910 224.747620,64.341225 
	C224.866928,57.985207 225.067612,51.630714 225.627777,45.137993 
	C226.000000,51.354397 226.000000,57.708797 226.000000,64.531601 
z"/>
<path fill="#D9D9D9" opacity="1.000000" stroke="none" 
	d="
M226.000000,181.531586 
	C225.563980,181.779190 224.743790,181.551208 224.747757,181.338593 
	C224.866272,174.981781 225.066330,168.626495 225.626770,162.135483 
	C226.000000,168.354401 226.000000,174.708786 226.000000,181.531586 
z"/>
<path fill="#D9D9D9" opacity="1.000000" stroke="none" 
	d="
M45.468407,226.000000 
	C45.220821,225.563980 45.448807,224.743790 45.661419,224.747772 
	C52.018230,224.866287 58.373524,225.066330 64.864532,225.626770 
	C58.645603,226.000000 52.291203,226.000000 45.468407,226.000000 
z"/>
<path fill="#D9D9D9" opacity="1.000000" stroke="none" 
	d="
M193.535355,1.000000 
	C191.378952,3.522415 184.678497,3.884673 180.136627,1.371066 
	C184.356903,1.000000 188.713806,1.000000 193.535355,1.000000 
z"/>
<path fill="#D9D9D9" opacity="1.000000" stroke="none" 
	d="
M226.000000,37.555836 
	C222.638199,35.699574 223.499756,33.006828 225.639069,30.114456 
	C226.000000,32.370556 226.000000,34.741116 226.000000,37.555836 
z"/>
<path fill="#D9D9D9" opacity="1.000000" stroke="none" 
	d="
M226.000000,196.555832 
	C222.637375,194.705109 223.487961,192.022446 225.643463,189.126251 
	C226.000000,191.370560 226.000000,193.741104 226.000000,196.555832 
z"/>
<path fill="#D9D9D9" opacity="1.000000" stroke="none" 
	d="
M30.444164,226.000000 
	C32.294884,222.637375 34.977551,223.487976 37.873749,225.643463 
	C35.629444,226.000000 33.258884,226.000000 30.444164,226.000000 
z"/>
<path fill="#D9D9D9" opacity="1.000000" stroke="none" 
	d="
M189.444168,226.000000 
	C191.300446,222.638245 193.993210,223.499725 196.885559,225.639069 
	C194.629440,226.000000 192.258896,226.000000 189.444168,226.000000 
z"/>
<path fill="#020202" opacity="1.000000" stroke="none" 
	d="
M111.244164,94.034714 
	C112.987984,94.079308 114.274658,94.079308 116.079643,94.079308 
	C114.901817,84.952835 116.344742,76.680359 121.775192,69.304939 
	C130.777786,57.077999 149.022736,52.649971 160.877716,61.529728 
	C167.944504,66.822968 173.701172,66.013802 180.483963,62.881260 
	C182.098709,62.135502 183.762863,61.496712 185.404297,60.808727 
	C185.835571,61.208523 186.266846,61.608318 186.698120,62.008114 
	C183.362625,66.347336 180.027130,70.686562 176.033447,75.882050 
	C180.825500,74.729958 185.227890,73.671547 189.630280,72.613144 
	C189.814468,72.882851 189.998657,73.152565 190.182846,73.422279 
	C187.139069,76.622055 184.424179,80.249924 180.964325,82.908150 
	C177.052811,85.913383 176.066254,89.524750 175.970474,94.112335 
	C175.519592,115.709618 167.293594,134.344055 153.067795,150.218018 
	C123.280251,183.456604 74.690353,183.549698 45.159431,164.801987 
	C61.121326,164.902466 74.994263,161.400467 87.481293,151.927856 
	C70.301987,146.661743 63.506508,141.392899 60.717304,131.168777 
	C64.382782,130.822189 68.000282,130.480133 71.617783,130.138077 
	C58.458225,124.413521 50.192642,115.538841 49.153564,100.365685 
	C53.408028,101.443604 57.117096,102.383347 60.826164,103.323090 
	C49.400726,91.400322 46.242249,78.469604 53.095657,62.793438 
	C68.922401,80.509750 87.780327,91.159554 111.244164,94.034714 
z"/>
</svg>